<svg xmlns="http://www.w3.org/2000/svg" width="19.925" height="25.42" viewBox="0 0 19.925 25.42"><defs><style>.a{fill:#159667;stroke:#159667;stroke-width:0.3px;}</style></defs><g transform="translate(-55.85 0.15)"><path class="a" d="M117.038,153.8l2.294-2.759a.368.368,0,0,0-.566-.47l-1.966,2.365-.43-.7a.368.368,0,0,0-.627.386l.7,1.134A.368.368,0,0,0,117.038,153.8Z" transform="translate(-56.76 -143.058)"/><path class="a" d="M115.744,251.624l.7,1.134a.368.368,0,0,0,.6.042l2.294-2.759a.368.368,0,1,0-.566-.47l-1.966,2.365-.43-.7a.368.368,0,1,0-.627.386Z" transform="translate(-56.761 -237.2)"/><path class="a" d="M115.744,351.291l.7,1.134a.368.368,0,0,0,.6.042l2.294-2.759a.368.368,0,0,0-.566-.47L116.8,351.6l-.43-.7a.368.368,0,1,0-.627.386Z" transform="translate(-56.761 -331.977)"/><path class="a" d="M75.257,162.757a.368.368,0,0,0-.368.368V165.8a.565.565,0,0,1-.564.564H57.3a.565.565,0,0,1-.564-.564V149.677a.368.368,0,0,0-.736,0V165.8a1.3,1.3,0,0,0,1.3,1.3H74.325a1.3,1.3,0,0,0,1.3-1.3v-2.679A.368.368,0,0,0,75.257,162.757Z" transform="translate(0 -141.983)"/><path class="a" d="M74.325,2.835h-1.8V1.315a1.315,1.315,0,1,0-2.63,0V2.835H67.127V1.315a1.315,1.315,0,1,0-2.63,0V2.835H61.73V1.315a1.315,1.315,0,0,0-2.63,0V2.835H57.3a1.3,1.3,0,0,0-1.3,1.3V5.976a.368.368,0,1,0,.736,0V4.136a.565.565,0,0,1,.564-.564h1.8v.584a1.315,1.315,0,0,0,2.63,0V3.571H64.5v.584a1.315,1.315,0,1,0,2.63,0V3.571H69.9v.584a1.315,1.315,0,1,0,2.63,0V3.571h1.8a.565.565,0,0,1,.564.564V19.424a.368.368,0,1,0,.736,0V4.136a1.3,1.3,0,0,0-1.3-1.3ZM60.994,4.156a.579.579,0,1,1-1.158,0V1.315a.579.579,0,1,1,1.158,0Zm5.4,0a.579.579,0,0,1-1.158,0V1.315a.579.579,0,0,1,1.158,0Zm5.4,0a.579.579,0,0,1-1.158,0V1.315a.579.579,0,0,1,1.158,0Z" transform="translate(0)"/><path class="a" d="M199.392,180.489h7.752a1.153,1.153,0,1,0,0-2.306h-7.752a1.153,1.153,0,1,0,0,2.306Zm0-1.57h7.752a.417.417,0,1,1,0,.834h-7.752a.417.417,0,1,1,0-.834Z" transform="translate(-135.26 -169.441)"/><path class="a" d="M199.392,279.7h7.752a1.153,1.153,0,1,0,0-2.306h-7.752a1.153,1.153,0,1,0,0,2.306Zm0-1.57h7.752a.417.417,0,1,1,0,.834h-7.752a.417.417,0,1,1,0-.834Z" transform="translate(-135.26 -263.786)"/><path class="a" d="M199.392,378.914h7.752a1.153,1.153,0,1,0,0-2.306h-7.752a1.153,1.153,0,1,0,0,2.306Zm0-1.57h7.752a.417.417,0,1,1,0,.834h-7.752a.417.417,0,1,1,0-.834Z" transform="translate(-135.26 -358.131)"/></g></svg>