<svg xmlns="http://www.w3.org/2000/svg" width="20.613" height="20.613" viewBox="0 0 20.613 20.613">
  <g id="Grupo_4986" data-name="Grupo 4986" transform="translate(-39.258 -523.578)">
    <g id="_864382" data-name="864382" transform="translate(39.758 524.078)">
      <g id="Grupo_4496" data-name="Grupo 4496">
        <g id="Grupo_4495" data-name="Grupo 4495">
          <path id="Trazado_3676" data-name="Trazado 3676" d="M19.3,7.909H17.81a8.143,8.143,0,0,0-1-2.419l1.052-1.052a.316.316,0,0,0,0-.447L15.623,1.754a.316.316,0,0,0-.447,0L14.123,2.806a8.135,8.135,0,0,0-2.418-1V.316A.316.316,0,0,0,11.388,0H8.225a.316.316,0,0,0-.316.316V1.8a8.134,8.134,0,0,0-2.418,1L4.438,1.754a.316.316,0,0,0-.447,0L1.754,3.991a.316.316,0,0,0,0,.447L2.806,5.49a8.143,8.143,0,0,0-1,2.419H.316A.316.316,0,0,0,0,8.225v3.163a.316.316,0,0,0,.316.316H1.8a8.143,8.143,0,0,0,1,2.419L1.754,15.175a.316.316,0,0,0,0,.447l2.237,2.237a.326.326,0,0,0,.447,0L5.49,16.808a8.143,8.143,0,0,0,2.419,1V19.3a.316.316,0,0,0,.316.316h3.163A.316.316,0,0,0,11.7,19.3V17.81a8.143,8.143,0,0,0,2.419-1l1.052,1.052a.316.316,0,0,0,.447,0l2.237-2.237a.316.316,0,0,0,0-.447l-1.052-1.052a8.142,8.142,0,0,0,1-2.417H19.3a.316.316,0,0,0,.316-.316V8.225A.316.316,0,0,0,19.3,7.909Zm-.316,3.163H17.557a.316.316,0,0,0-.31.253,7.516,7.516,0,0,1-1.107,2.667.316.316,0,0,0,.04.4L17.188,15.4l-1.79,1.79L14.39,16.18a.316.316,0,0,0-.4-.04,7.516,7.516,0,0,1-2.667,1.107.316.316,0,0,0-.253.31v1.424H8.541V17.557a.316.316,0,0,0-.253-.31A7.516,7.516,0,0,1,5.621,16.14a.316.316,0,0,0-.4.04L4.215,17.188,2.425,15.4l1.009-1.008a.316.316,0,0,0,.04-.4,7.516,7.516,0,0,1-1.107-2.667.316.316,0,0,0-.31-.253H.633V8.541H2.056a.316.316,0,0,0,.31-.253A7.516,7.516,0,0,1,3.473,5.621a.316.316,0,0,0-.04-.4L2.425,4.214l1.79-1.79L5.223,3.433a.316.316,0,0,0,.4.04A7.518,7.518,0,0,1,8.288,2.366a.316.316,0,0,0,.253-.31V.633h2.531V2.056a.316.316,0,0,0,.253.31,7.518,7.518,0,0,1,2.666,1.107.316.316,0,0,0,.4-.04L15.4,2.425l1.79,1.79L16.18,5.223a.316.316,0,0,0-.04.4,7.516,7.516,0,0,1,1.107,2.667.316.316,0,0,0,.31.253h1.424Z" fill="#7a7a7a" stroke="#7a7a7a" stroke-width="1"/>
        </g>
      </g>
      <g id="Grupo_4498" data-name="Grupo 4498" transform="translate(6.327 6.327)">
        <g id="Grupo_4497" data-name="Grupo 4497">
          <path id="Trazado_3677" data-name="Trazado 3677" d="M163.48,160a3.48,3.48,0,1,0,3.48,3.48A3.48,3.48,0,0,0,163.48,160Zm0,6.327a2.847,2.847,0,1,1,2.847-2.847A2.847,2.847,0,0,1,163.48,166.327Z" transform="translate(-160 -160)" fill="#7a7a7a" stroke="#7a7a7a" stroke-width="1"/>
        </g>
      </g>
    </g>
  </g>
</svg>
