<svg xmlns="http://www.w3.org/2000/svg" width="15.892" height="24.933" viewBox="0 0 15.892 24.933"><defs><style>.a{fill:#159667;stroke:#159667;stroke-width:0.5px;}</style></defs><g transform="translate(-66.95 0.25)"><g transform="translate(67.2 0)"><path class="a" d="M74.923,0A7.712,7.712,0,0,0,67.2,7.669,7.537,7.537,0,0,0,68.3,11.6c0,.027,0,.054.027.054.027.054,2.395,4.225,2.5,6.539a1.736,1.736,0,0,0,.942,3.2h6.243a1.746,1.746,0,0,0,1.749-1.749,1.777,1.777,0,0,0-.807-1.48c.108-2.314,2.476-6.485,2.5-6.512a.094.094,0,0,1,.027-.054,7.537,7.537,0,0,0,1.1-3.929A7.683,7.683,0,0,0,74.923,0ZM77.99,20.558H71.748a.915.915,0,0,1,0-1.83H77.99a.915.915,0,1,1,0,1.83ZM74.869,8.611a.425.425,0,0,0-.431.431V12.97L73.82,12.4a3.768,3.768,0,0,1-1.319-2.8c.027-2.1,1.83-4.036,2.368-4.6.538.538,2.341,2.5,2.368,4.6a3.684,3.684,0,0,1-1.319,2.8L75.273,13V9.014A.4.4,0,0,0,74.869,8.611Zm5.812,2.637a.1.1,0,0,0-.027.081c-.323.592-2.314,4.2-2.556,6.593H75.273V14.073l1.211-1.1a4.637,4.637,0,0,0,1.588-3.417c-.027-2.825-2.691-5.247-2.8-5.355A.386.386,0,0,0,75,4.09h-.242a.345.345,0,0,0-.269.108c-.108.108-2.772,2.529-2.8,5.355a4.46,4.46,0,0,0,1.588,3.417l1.184,1.076v3.848H71.64c-.215-2.395-2.233-6-2.556-6.593,0-.027-.027-.054-.054-.081a6.741,6.741,0,0,1-1.023-3.579,6.848,6.848,0,0,1,13.7.027A6.741,6.741,0,0,1,80.681,11.248Z" transform="translate(-67.2 0)"/><path class="a" d="M132.054,321.6H127.4a1.4,1.4,0,0,0,0,2.8h4.655a1.407,1.407,0,0,0,1.4-1.4A1.39,1.39,0,0,0,132.054,321.6Zm0,1.964H127.4a.565.565,0,1,1,0-1.13h4.655a.565.565,0,1,1,0,1.13Z" transform="translate(-122.044 -299.965)"/></g></g></svg>