<svg xmlns="http://www.w3.org/2000/svg" width="20.387" height="24.397" viewBox="0 0 20.387 24.397"><defs><style>.a{fill:#159667;}</style></defs><path class="a" d="M9.8,24.239.174,15.019a.569.569,0,0,1,.395-.98H3.206V.571A.571.571,0,0,1,3.776,0H16.607a.57.57,0,0,1,.569.57V14.035h2.642a.57.57,0,0,1,.391.982l-9.624,9.223a.568.568,0,0,1-.788,0Zm.395-1.2,8.205-7.86h-1.79a.57.57,0,0,1-.57-.569V1.141H4.346V14.605a.571.571,0,0,1-.569.569H1.986Zm0-9.563A2.18,2.18,0,0,1,8.018,11.3V9.864h-1.2V8.725h1.2V8.261h-.8V7.121h.8V6.488a2.18,2.18,0,0,1,2.174-2.174h2.574v1.14H10.192A1.036,1.036,0,0,0,9.158,6.488v.633h2.807v1.14H9.158v.464h2.406v1.14H9.158V11.3a1.036,1.036,0,0,0,1.034,1.034h2.574v1.141Z" transform="translate(0.002 -0.001)"/></svg>