<svg xmlns="http://www.w3.org/2000/svg" width="16.19" height="16.19" viewBox="0 0 16.19 16.19"><defs><style>.a{fill:#7a7a7a;stroke:#7a7a7a;}</style></defs><g transform="translate(-43.258 -525.931)"><g transform="translate(43.758 526.431)"><path class="a" d="M14.945,6.125H13.794a6.307,6.307,0,0,0-.777-1.873l.815-.815a.245.245,0,0,0,0-.346L12.1,1.358a.245.245,0,0,0-.346,0l-.815.815A6.3,6.3,0,0,0,9.065,1.4V.245A.245.245,0,0,0,8.82,0H6.37a.245.245,0,0,0-.245.245V1.4a6.3,6.3,0,0,0-1.873.777l-.815-.816a.245.245,0,0,0-.346,0L1.358,3.091a.245.245,0,0,0,0,.346l.815.815A6.307,6.307,0,0,0,1.4,6.125H.245A.245.245,0,0,0,0,6.37V8.82a.245.245,0,0,0,.245.245H1.4a6.307,6.307,0,0,0,.777,1.873l-.816.815a.245.245,0,0,0,0,.346l1.732,1.732a.252.252,0,0,0,.346,0l.815-.815a6.307,6.307,0,0,0,1.873.776v1.152a.245.245,0,0,0,.245.245H8.82a.245.245,0,0,0,.245-.245V13.794a6.307,6.307,0,0,0,1.873-.777l.815.815a.245.245,0,0,0,.346,0L13.832,12.1a.245.245,0,0,0,0-.346l-.815-.815a6.306,6.306,0,0,0,.776-1.872h1.152a.245.245,0,0,0,.245-.245V6.37A.245.245,0,0,0,14.945,6.125ZM14.7,8.575H13.6a.245.245,0,0,0-.24.2,5.821,5.821,0,0,1-.858,2.065.245.245,0,0,0,.031.309l.781.781-1.386,1.386-.781-.781a.245.245,0,0,0-.309-.031,5.821,5.821,0,0,1-2.065.858.245.245,0,0,0-.2.24v1.1H6.615V13.6a.245.245,0,0,0-.2-.24A5.821,5.821,0,0,1,4.354,12.5a.245.245,0,0,0-.309.031l-.781.781L1.878,11.926l.781-.781a.245.245,0,0,0,.031-.309,5.821,5.821,0,0,1-.858-2.065.245.245,0,0,0-.24-.2H.49V6.615h1.1a.245.245,0,0,0,.24-.2A5.821,5.821,0,0,1,2.69,4.354a.245.245,0,0,0-.031-.309l-.781-.781L3.264,1.878l.781.781a.245.245,0,0,0,.309.031,5.823,5.823,0,0,1,2.065-.858.245.245,0,0,0,.2-.24V.49h1.96v1.1a.245.245,0,0,0,.2.24,5.823,5.823,0,0,1,2.065.858.245.245,0,0,0,.309-.031l.781-.781,1.386,1.386-.781.781a.245.245,0,0,0-.031.309,5.821,5.821,0,0,1,.858,2.065.245.245,0,0,0,.24.2h1.1Z"/><g transform="translate(4.9 4.9)"><path class="a" d="M162.7,160a2.7,2.7,0,1,0,2.7,2.7A2.7,2.7,0,0,0,162.7,160Zm0,4.9A2.205,2.205,0,1,1,164.9,162.7,2.205,2.205,0,0,1,162.7,164.9Z" transform="translate(-160 -160)"/></g></g></g></svg>