<svg xmlns="http://www.w3.org/2000/svg" width="18.625" height="22.977" viewBox="0 0 18.625 22.977"><defs><style>.a{fill:#159667;}</style></defs><g transform="translate(-48.5 0)"><path class="a" d="M66.4.724a2.467,2.467,0,0,0-3.49,0L59.819,3.815a2.472,2.472,0,0,0-.409,2.948L57.673,8.5a.673.673,0,0,0-.2.476v2.683l-2.8-2.8a.673.673,0,0,0-1.1.233L48.546,22.06a.674.674,0,0,0,.873.87l12.924-5.071a.673.673,0,0,0,.23-1.1L58.822,13V9.254l1.54-1.54a2.471,2.471,0,0,0,2.948-.409L66.4,4.214a2.467,2.467,0,0,0,0-3.49ZM50.356,21.116l4.1-10.575L57.2,13.283l-.96.96a.673.673,0,0,0,.952.952l.96-.96,2.746,2.746ZM65.449,3.262,62.358,6.353a1.122,1.122,0,0,1-1.587-1.587l3.091-3.091a1.122,1.122,0,1,1,1.587,1.587Z" transform="translate(0 0)"/></g></svg>