<svg xmlns="http://www.w3.org/2000/svg" width="28.995" height="23.809" viewBox="0 0 28.995 23.809"><defs><style>.a{fill:#159667;}</style></defs><path class="a" d="M300.554,417.22l-2.262,1.365c-.68.4-1.451.8-2.406,1.252-.24.1-.528.239-.831.391A2.784,2.784,0,0,0,293.6,423.3a2.679,2.679,0,0,0,2.008,2,2.591,2.591,0,0,0,.538.057l.1,0a2.757,2.757,0,0,0,2.433-1.537c.091-.228.228-.5.362-.769.16-.3.315-.612.469-.923.25-.5.509-1.025.8-1.513l1.387-2.3a.845.845,0,0,0-.143-.927A.776.776,0,0,0,300.554,417.22Zm-1.941,3.061a22.411,22.411,0,0,0-1.033,2.064,5.969,5.969,0,0,1-.367.778,1.069,1.069,0,0,1-1.231.564.971.971,0,0,1-.771-.786,1.073,1.073,0,0,1,.6-1.228,3.321,3.321,0,0,1,.415-.2c.119-.052.241-.1.364-.166l.509-.252C297.6,420.806,298.115,420.551,298.613,420.281Z" transform="translate(-281.751 -408.155)"/><path class="a" d="M304.273,413.181a.844.844,0,0,0-.038-.121.715.715,0,0,0-.062-.12,14.324,14.324,0,0,0-3.024-4.539.651.651,0,0,0-.179-.188,14.386,14.386,0,0,0-15.468-3.171.835.835,0,0,0-.159.046.726.726,0,0,0-.12.061,14.327,14.327,0,0,0-4.54,3.025.643.643,0,0,0-.187.179,14.359,14.359,0,0,0-4.193,10.163,14.157,14.157,0,0,0,3.125,8.97.772.772,0,0,0,.627.341h21.439a.739.739,0,0,0,.661-.315,14.432,14.432,0,0,0,2.119-14.33Zm-4.142,5.912a.808.808,0,0,0,.577.24h2.935a12.859,12.859,0,0,1-.691,3.446l-.972-.422a.807.807,0,1,0-.652,1.477l1,.432a13.1,13.1,0,0,1-1.176,1.933H280.493a12.75,12.75,0,0,1-1.293-2.11l.98-.4a.807.807,0,0,0-.646-1.48l-.945.384a12.663,12.663,0,0,1-.635-3.262h2.936a.814.814,0,0,0,0-1.628h-2.935a12.716,12.716,0,0,1,.7-3.444l.908.388a.594.594,0,0,0,.376.105.757.757,0,0,0,.741-.487.813.813,0,0,0-.414-1.068l-.981-.422a12.878,12.878,0,0,1,1.866-2.758l.711.711a.794.794,0,0,0,.559.248.836.836,0,0,0,.586-.236.805.805,0,0,0,.006-1.15l-.717-.718a12.914,12.914,0,0,1,2.93-1.953l.382.942a.733.733,0,0,0,.741.52.679.679,0,0,0,.34-.077.811.811,0,0,0,.412-1.056l-.381-.94a12.712,12.712,0,0,1,3.262-.639v2.935a.814.814,0,0,0,.813.813h0a.814.814,0,0,0,.812-.813v-2.933a12.712,12.712,0,0,1,3.441.7l-.416.963a.8.8,0,0,0,.358,1.037.6.6,0,0,0,.389.105.825.825,0,0,0,.73-.489l.425-.981a12.959,12.959,0,0,1,2.759,1.866l-.713.713a.8.8,0,0,0-.019,1.137.74.74,0,0,0,.6.255.853.853,0,0,0,.557-.242l.719-.718a12.946,12.946,0,0,1,1.952,2.93l-.979.4a.806.806,0,0,0-.421,1.032.731.731,0,0,0,.751.52.388.388,0,0,0,.188-.047l1.07-.406a12.717,12.717,0,0,1,.637,3.257h-2.935a.815.815,0,0,0-.813.812A.806.806,0,0,0,300.131,419.093Z" transform="translate(-276.302 -404.018)"/></svg>
