<svg xmlns="http://www.w3.org/2000/svg" width="26" height="22.316" viewBox="0 0 26 22.316"><defs><style>.a,.c{fill:#7a7a7a;}.b{fill:#def5ec;}.c{stroke:#7a7a7a;stroke-width:0.6px;}</style></defs><g transform="translate(-40 -399.063)"><g transform="translate(32 392.063)"><g transform="translate(11.848 7)"><path class="a" d="M13.848,14.7A3.848,3.848,0,1,1,17.7,10.848,3.859,3.859,0,0,1,13.848,14.7Zm0-5.772a1.818,1.818,0,0,0-1.924,1.924,1.818,1.818,0,0,0,1.924,1.924,1.818,1.818,0,0,0,1.924-1.924A1.818,1.818,0,0,0,13.848,8.924Z" transform="translate(-10 -7)"/></g><g transform="translate(8 16.62)"><path class="a" d="M22.431,19.7a.909.909,0,0,1-.962-.962V16.81a2.959,2.959,0,0,0-2.886-2.886H12.81A2.959,2.959,0,0,0,9.924,16.81v1.924a.909.909,0,0,1-.962.962A.909.909,0,0,1,8,18.734V16.81A4.763,4.763,0,0,1,12.81,12h5.772a4.763,4.763,0,0,1,4.81,4.81v1.924A.909.909,0,0,1,22.431,19.7Z" transform="translate(-8 -12)"/></g></g><g transform="translate(52.41 395.28)"><g transform="translate(0 11.866)"><path class="c" d="M11.018,15.811a1.049,1.049,0,0,0-.543-.25L7.992,15.2l-1.111-2.25a1.051,1.051,0,0,0-1.887,0L3.884,15.2,1.4,15.56a1.051,1.051,0,0,0-.583,1.794l1.8,1.752-.424,2.473a1.051,1.051,0,0,0,1.526,1.109L5.938,21.52l2.221,1.168a1.052,1.052,0,0,0,1.526-1.109l-.424-2.473,1.8-1.752a1.053,1.053,0,0,0-.04-1.544Zm-.5.989L8.533,18.734a.277.277,0,0,0-.08.245l.468,2.731a.276.276,0,0,1-.4.292l-2.453-1.29a.277.277,0,0,0-.258,0L3.357,22a.276.276,0,0,1-.4-.292l.468-2.731a.277.277,0,0,0-.08-.245L1.359,16.8a.277.277,0,0,1,.153-.472l2.742-.4a.277.277,0,0,0,.208-.151L5.69,13.292a.277.277,0,0,1,.5,0l1.226,2.485a.277.277,0,0,0,.208.151l2.742.4A.277.277,0,0,1,10.517,16.8Z" transform="translate(-0.491 -12.354)"/><path class="c" d="M8.157,22.331a1.065,1.065,0,0,1-.494-.123L5.447,21.043,3.23,22.208A1.061,1.061,0,0,1,1.691,21.09l.423-2.468L.321,16.873a1.06,1.06,0,0,1,.588-1.81l2.478-.36L4.5,12.457a1.06,1.06,0,0,1,1.9,0L7.507,14.7l2.479.36a1.06,1.06,0,0,1,.588,1.81L8.78,18.621,9.2,21.09a1.061,1.061,0,0,1-1.046,1.241ZM5.447,21.022l0,0,2.221,1.168a1.043,1.043,0,0,0,1.513-1.1L8.76,18.615l1.8-1.755a1.042,1.042,0,0,0-.578-1.779L7.495,14.72l0,0-1.11-2.25a1.042,1.042,0,0,0-1.87,0L3.4,14.72h0l-2.483.361A1.042,1.042,0,0,0,.333,16.86l1.8,1.755v0l-.424,2.473a1.042,1.042,0,0,0,1.513,1.1Zm2.711.533a.283.283,0,0,1-.133-.033l-2.453-1.29a.272.272,0,0,0-.249,0l-2.453,1.29a.283.283,0,0,1-.133.033.287.287,0,0,1-.22-.1.28.28,0,0,1-.062-.232l.468-2.731a.268.268,0,0,0-.077-.237L.862,16.318a.286.286,0,0,1,.158-.488l2.742-.4a.268.268,0,0,0,.2-.146L5.19,12.8a.286.286,0,0,1,.513,0L6.93,15.285a.268.268,0,0,0,.2.146l2.742.4a.286.286,0,0,1,.158.488L8.048,18.252a.268.268,0,0,0-.077.237l.468,2.731a.28.28,0,0,1-.062.232A.287.287,0,0,1,8.157,21.555ZM5.447,20.184a.287.287,0,0,1,.133.033l2.453,1.29a.266.266,0,0,0,.125.031.269.269,0,0,0,.206-.1.262.262,0,0,0,.058-.217l-.468-2.731a.286.286,0,0,1,.082-.253l1.984-1.934a.268.268,0,0,0-.148-.457l-2.742-.4a.286.286,0,0,1-.215-.156L5.687,12.808a.268.268,0,0,0-.48,0L3.98,15.293a.286.286,0,0,1-.215.156l-2.742.4a.268.268,0,0,0-.148.457l1.984,1.934a.286.286,0,0,1,.082.253l-.468,2.731a.262.262,0,0,0,.058.217.269.269,0,0,0,.206.1.266.266,0,0,0,.125-.031l2.453-1.29A.287.287,0,0,1,5.447,20.184Z" transform="translate(0 -11.866)"/></g></g></g></svg>
