<svg xmlns="http://www.w3.org/2000/svg" width="27" height="22.605" viewBox="0 0 27 22.605"><defs><style>.a,.c{fill:#7a7a7a;}.b{fill:#def5ec;}.c{stroke:#707070;stroke-width:0.7px;}</style></defs><g transform="translate(-40 -461.773)"><g transform="translate(32 454.773)"><g transform="translate(11.848 7)"><path class="a" d="M13.848,14.7A3.848,3.848,0,1,1,17.7,10.848,3.859,3.859,0,0,1,13.848,14.7Zm0-5.772a1.818,1.818,0,0,0-1.924,1.924,1.818,1.818,0,0,0,1.924,1.924,1.818,1.818,0,0,0,1.924-1.924A1.818,1.818,0,0,0,13.848,8.924Z" transform="translate(-10 -7)"/></g><g transform="translate(8 16.62)"><path class="a" d="M22.431,19.7a.909.909,0,0,1-.962-.962V16.81a2.959,2.959,0,0,0-2.886-2.886H12.81A2.959,2.959,0,0,0,9.924,16.81v1.924a.909.909,0,0,1-.962.962A.909.909,0,0,1,8,18.734V16.81A4.763,4.763,0,0,1,12.81,12h5.772a4.763,4.763,0,0,1,4.81,4.81v1.924A.909.909,0,0,1,22.431,19.7Z" transform="translate(-8 -12)"/></g></g><path class="c" d="M32.711,20.045a.151.151,0,0,0-.194-.017l-1.237.873a.151.151,0,0,0-.047.054l-.312.607-4.249,4.249-.149-.149a.4.4,0,0,0-.567,0l-.054.054a.4.4,0,0,0-.028.535.982.982,0,0,1-.979.924h-.019a1.127,1.127,0,0,0-.713.327l-2.46,2.46a1.128,1.128,0,0,0,0,1.6,1.04,1.04,0,0,0,.741.312,1.153,1.153,0,0,0,.814-.353l2.46-2.46a1.128,1.128,0,0,0,.327-.714.151.151,0,0,0,0-.018.993.993,0,0,1,.877-1.026.4.4,0,0,0,.535-.029l.054-.054a.4.4,0,0,0,0-.567l-.149-.149,4.25-4.25.607-.312a.151.151,0,0,0,.054-.047l.873-1.237a.151.151,0,0,0-.017-.194Zm-8.5,7.842a.363.363,0,0,1-.083.385l-1.6,1.6a.363.363,0,0,1-.385.083ZM23.27,31.08a.364.364,0,0,1,.083-.385l1.6-1.6a.364.364,0,0,1,.385-.083Zm2.473-2.76a.825.825,0,0,1-.187.469.667.667,0,0,0-.819.1l-1.6,1.6a.667.667,0,0,0-.094.823l0,0a.781.781,0,0,1-1.128.041.826.826,0,0,1,0-1.169l0,0a.666.666,0,0,0,.823-.095l1.6-1.6a.666.666,0,0,0,.1-.819.825.825,0,0,1,.469-.187,1.285,1.285,0,0,0,1.232-.96l.524.524a1.319,1.319,0,0,0-.916,1.277ZM27.3,27l-.054.054a.1.1,0,0,1-.14,0l-.987-.988a.1.1,0,0,1,0-.14l.054-.054a.1.1,0,0,1,.14,0l.987.987A.1.1,0,0,1,27.3,27Zm4.751-5.315-.6.306a.151.151,0,0,0-.038.028l-4.266,4.266-.263-.263,4.266-4.266a.15.15,0,0,0,.028-.038l.306-.6,1.1-.778.239.239Z" transform="translate(31.578 446.768)"/></g></svg>
