<svg xmlns="http://www.w3.org/2000/svg" width="16.661" height="20.936" viewBox="0 0 16.661 20.936"><defs><style>.a{fill:#7a7a7a;stroke:#7a7a7a;stroke-width:0.6px;}</style></defs><g transform="translate(-42.93 -490.659)"><g transform="translate(-10.59 490.959)"><path class="a" d="M69.881,71.547a10.951,10.951,0,0,0-.417-2.7.3.3,0,1,0-.575.161,11.21,11.21,0,0,1,.344,1.783,3.733,3.733,0,0,0-4.8.3,3.722,3.722,0,0,0-5.155,0,3.733,3.733,0,0,0-4.8-.3,9.613,9.613,0,0,1,1.777-4.725.3.3,0,0,0-.47-.368,10.461,10.461,0,0,0-1.957,5.846v0a.3.3,0,0,0,.12.236L60.949,77H58.771a.683.683,0,0,0-.683.683v4.956a.683.683,0,0,0,.683.683h3.618a.3.3,0,1,0,0-.6H58.771a.086.086,0,0,1-.086-.086v-.681h6.331v.681a.086.086,0,0,1-.086.086H63.582a.3.3,0,0,0,0,.6H64.93a.683.683,0,0,0,.683-.683V77.679A.683.683,0,0,0,64.93,77H62.752l7.008-5.21a.3.3,0,0,0,.12-.236s0,0,0,0Zm-2.876-.889a3.023,3.023,0,0,1,2.138.844l-6.552,4.871L64.686,71.7A2.993,2.993,0,0,1,67.005,70.658Zm-5.155,0a3.006,3.006,0,0,1,2.229.937L61.85,76.566,59.622,71.6A3.026,3.026,0,0,1,61.85,70.658ZM59.015,71.7l2.095,4.672L54.559,71.5a3.039,3.039,0,0,1,2.137-.844A2.971,2.971,0,0,1,59.015,71.7Zm-.33,7.257H59.82v2.4H58.685Zm2.867,0v2.4H60.417v-2.4Zm1.732,0v2.4H62.149v-2.4Zm1.732,0v2.4H63.881v-2.4Zm0-1.278v.681H58.685v-.681a.086.086,0,0,1,.086-.086h6.16A.086.086,0,0,1,65.016,77.679Z" transform="translate(0 -62.982)"/><path class="a" d="M122.5,2.254A7,7,0,0,1,127.324.6,7.135,7.135,0,0,1,131.85,2a7.107,7.107,0,0,1,2.166,3,.3.3,0,0,0,.554-.223A7.265,7.265,0,0,0,127.324,0,7.573,7.573,0,0,0,122.1,1.809a.3.3,0,0,0,.4.445Z" transform="translate(-65.474)"/></g></g></svg>