<svg xmlns="http://www.w3.org/2000/svg" width="26" height="20.461" viewBox="0 0 26 20.461"><defs><style>.a,.c{fill:#7a7a7a;}.b{fill:#def5ec;}.c{stroke:#7a7a7a;stroke-width:0.9px;}</style></defs><g transform="translate(-40 -429.918)"><g transform="translate(32 422.918)"><g transform="translate(11.848 7)"><path class="a" d="M13.848,14.7A3.848,3.848,0,1,1,17.7,10.848,3.859,3.859,0,0,1,13.848,14.7Zm0-5.772a1.818,1.818,0,0,0-1.924,1.924,1.818,1.818,0,0,0,1.924,1.924,1.818,1.818,0,0,0,1.924-1.924A1.818,1.818,0,0,0,13.848,8.924Z" transform="translate(-10 -7)"/></g><g transform="translate(8 16.62)"><path class="a" d="M22.431,19.7a.909.909,0,0,1-.962-.962V16.81a2.959,2.959,0,0,0-2.886-2.886H12.81A2.959,2.959,0,0,0,9.924,16.81v1.924a.909.909,0,0,1-.962.962A.909.909,0,0,1,8,18.734V16.81A4.763,4.763,0,0,1,12.81,12h5.772a4.763,4.763,0,0,1,4.81,4.81v1.924A.909.909,0,0,1,22.431,19.7Z" transform="translate(-8 -12)"/></g></g><g transform="translate(52.426 436.5)"><path class="c" d="M10.7,4.387H9.879a4.517,4.517,0,0,0-.557-1.342l.583-.583a.175.175,0,0,0,0-.248L8.665.973a.175.175,0,0,0-.248,0l-.584.583A4.512,4.512,0,0,0,6.492,1V.175A.175.175,0,0,0,6.317,0H4.562a.175.175,0,0,0-.175.175V1a4.512,4.512,0,0,0-1.341.557L2.462.973a.175.175,0,0,0-.248,0L.973,2.214a.175.175,0,0,0,0,.248l.583.583A4.517,4.517,0,0,0,1,4.387H.175A.175.175,0,0,0,0,4.562V6.317a.175.175,0,0,0,.175.175H1a4.517,4.517,0,0,0,.557,1.342l-.584.583a.175.175,0,0,0,0,.248L2.214,9.906a.181.181,0,0,0,.248,0l.583-.583a4.517,4.517,0,0,0,1.342.556V10.7a.175.175,0,0,0,.175.175H6.317a.175.175,0,0,0,.175-.175V9.879a4.517,4.517,0,0,0,1.342-.557l.583.583a.175.175,0,0,0,.248,0L9.906,8.665a.175.175,0,0,0,0-.248l-.583-.583a4.516,4.516,0,0,0,.556-1.341H10.7a.175.175,0,0,0,.175-.175V4.562A.175.175,0,0,0,10.7,4.387Zm-.175,1.755h-.79a.175.175,0,0,0-.172.14,4.169,4.169,0,0,1-.614,1.479.175.175,0,0,0,.022.221l.559.559-.993.993-.559-.559a.175.175,0,0,0-.221-.022,4.169,4.169,0,0,1-1.479.614.175.175,0,0,0-.14.172v.79h-1.4v-.79a.175.175,0,0,0-.14-.172,4.169,4.169,0,0,1-1.479-.614.175.175,0,0,0-.221.022l-.559.559-.993-.992L1.9,7.982a.175.175,0,0,0,.022-.221,4.169,4.169,0,0,1-.614-1.479.175.175,0,0,0-.172-.141H.351v-1.4h.79a.175.175,0,0,0,.172-.14,4.169,4.169,0,0,1,.614-1.479A.175.175,0,0,0,1.9,2.9l-.56-.559.993-.993L2.9,1.9a.175.175,0,0,0,.221.022A4.17,4.17,0,0,1,4.6,1.312a.175.175,0,0,0,.141-.172V.351h1.4v.79a.175.175,0,0,0,.14.172,4.17,4.17,0,0,1,1.479.614A.175.175,0,0,0,7.982,1.9l.559-.559.993.993L8.974,2.9a.175.175,0,0,0-.022.221A4.169,4.169,0,0,1,9.566,4.6a.175.175,0,0,0,.172.14h.79Z"/><g transform="translate(3.509 3.509)"><path class="c" d="M161.93,160a1.93,1.93,0,1,0,1.93,1.93A1.93,1.93,0,0,0,161.93,160Zm0,3.509a1.579,1.579,0,1,1,1.579-1.579A1.579,1.579,0,0,1,161.93,163.509Z" transform="translate(-160 -160)"/></g></g></g></svg>
